<?xml version="1.0" encoding="UTF-8" standalone="no"?><!DOCTYPE svg><svg xmlns="http://www.w3.org/2000/svg" viewbox="0 0 28 40"><rect width="1" height="1" fill="#000" opacity="1" x="0" y="18"><animate attributeName="x" values="0;2;2;2;2;2" dur="2.000000s" repeatCount="indefinite"/><animate attributeName="y" values="18;19;19;19;19;19" dur="2.000000s" repeatCount="indefinite"/></rect><rect width="1" height="1" fill="#000" opacity="1" x="0" y="19"></rect><rect width="1" height="1" fill="#000" opacity="1" x="0" y="20"><animate attributeName="x" values="0;4;4;4;4;4" dur="2.000000s" repeatCount="indefinite"/><animate attributeName="y" values="20;16;16;16;16;16" dur="2.000000s" repeatCount="indefinite"/></rect><rect width="1" height="1" fill="#000" opacity="1" x="2" y="17"><animate attributeName="x" values="2;4;4;4;4;4" dur="2.000000s" repeatCount="indefinite"/></rect><rect width="1" height="1" fill="#000" opacity="1" x="2" y="21"><animate attributeName="x" values="2;4;4;4;4;4" dur="2.000000s" repeatCount="indefinite"/><animate attributeName="y" values="21;18;18;18;18;18" dur="2.000000s" repeatCount="indefinite"/></rect><rect width="1" height="1" fill="#000" opacity="1" x="3" y="11"></rect><rect width="1" height="1" fill="#000" opacity="1" x="3" y="15"><animate attributeName="x" values="3;4;4;4;4;4" dur="2.000000s" repeatCount="indefinite"/><animate attributeName="y" values="15;19;19;19;19;19" dur="2.000000s" repeatCount="indefinite"/></rect><rect width="1" height="1" fill="#000" opacity="1" x="3" y="23"><animate attributeName="x" values="3;4;4;4;4;4" dur="2.000000s" repeatCount="indefinite"/><animate attributeName="y" values="23;20;20;20;20;20" dur="2.000000s" repeatCount="indefinite"/></rect><rect width="1" height="1" fill="#000" opacity="1" x="3" y="27"></rect><rect width="1" height="1" fill="#000" opacity="1" x="4" y="10"></rect><rect width="1" height="1" fill="#000" opacity="1" x="4" y="12"></rect><rect width="1" height="1" fill="#000" opacity="1" x="4" y="26"></rect><rect width="1" height="1" fill="#000" opacity="1" x="4" y="28"></rect><rect width="1" height="1" fill="#000" opacity="1" x="5" y="10"></rect><rect width="1" height="1" fill="#000" opacity="1" x="5" y="12"></rect><rect width="1" height="1" fill="#000" opacity="1" x="5" y="26"></rect><rect width="1" height="1" fill="#000" opacity="1" x="5" y="28"></rect><rect width="1" height="1" fill="#000" opacity="1" x="6" y="7"></rect><rect width="1" height="1" fill="#000" opacity="1" x="6" y="8"></rect><rect width="1" height="1" fill="#000" opacity="1" x="6" y="10"></rect><rect width="1" height="1" fill="#000" opacity="1" x="6" y="12"><animate attributeName="x" values="6;4;4;4;4;4" dur="2.000000s" repeatCount="indefinite"/><animate attributeName="y" values="12;21;21;21;21;21" dur="2.000000s" repeatCount="indefinite"/></rect><rect width="1" height="1" fill="#000" opacity="1" x="6" y="14"><animate attributeName="x" values="6;4;4;4;4;4" dur="2.000000s" repeatCount="indefinite"/><animate attributeName="y" values="14;22;22;22;22;22" dur="2.000000s" repeatCount="indefinite"/></rect><rect width="1" height="1" fill="#000" opacity="1" x="6" y="15"><animate attributeName="x" values="6;6;6;5;5;5" dur="2.000000s" repeatCount="indefinite"/><animate attributeName="y" values="15;15;15;16;16;16" dur="2.000000s" repeatCount="indefinite"/></rect><rect width="1" height="1" fill="#000" opacity="1" x="6" y="16"><animate attributeName="x" values="6;6;6;5;5;5" dur="2.000000s" repeatCount="indefinite"/><animate attributeName="y" values="16;16;16;17;17;17" dur="2.000000s" repeatCount="indefinite"/></rect><rect width="1" height="1" fill="#000" opacity="1" x="6" y="17"><animate attributeName="x" values="6;6;6;5;5;5" dur="2.000000s" repeatCount="indefinite"/><animate attributeName="y" values="17;17;17;18;18;18" dur="2.000000s" repeatCount="indefinite"/></rect><rect width="1" height="1" fill="#000" opacity="1" x="6" y="18"><animate attributeName="x" values="6;6;6;5;5;5" dur="2.000000s" repeatCount="indefinite"/><animate attributeName="y" values="18;18;18;19;19;19" dur="2.000000s" repeatCount="indefinite"/></rect><rect width="1" height="1" fill="#000" opacity="1" x="6" y="19"><animate attributeName="x" values="6;6;6;5;5;5" dur="2.000000s" repeatCount="indefinite"/><animate attributeName="y" values="19;19;19;20;20;20" dur="2.000000s" repeatCount="indefinite"/></rect><rect width="1" height="1" fill="#000" opacity="1" x="6" y="20"><animate attributeName="x" values="6;6;6;5;5;5" dur="2.000000s" repeatCount="indefinite"/><animate attributeName="y" values="20;20;20;21;21;21" dur="2.000000s" repeatCount="indefinite"/></rect><rect width="1" height="1" fill="#000" opacity="1" x="6" y="21"><animate attributeName="x" values="6;6;6;5;5;5" dur="2.000000s" repeatCount="indefinite"/><animate attributeName="y" values="21;21;21;22;22;22" dur="2.000000s" repeatCount="indefinite"/></rect><rect width="1" height="1" fill="#000" opacity="1" x="6" y="22"><animate attributeName="y" values="22;22;22;12;12;12" dur="2.000000s" repeatCount="indefinite"/></rect><rect width="1" height="1" fill="#000" opacity="1" x="6" y="23"><animate attributeName="y" values="23;23;23;26;26;26" dur="2.000000s" repeatCount="indefinite"/></rect><rect width="1" height="1" fill="#000" opacity="1" x="6" y="24"><animate attributeName="x" values="6;5;5;5;5;5" dur="2.000000s" repeatCount="indefinite"/><animate attributeName="y" values="24;13;13;13;13;13" dur="2.000000s" repeatCount="indefinite"/></rect><rect width="1" height="1" fill="#000" opacity="1" x="6" y="26"><animate attributeName="x" values="6;5;5;5;5;5" dur="2.000000s" repeatCount="indefinite"/><animate attributeName="y" values="26;14;14;14;14;14" dur="2.000000s" repeatCount="indefinite"/></rect><rect width="1" height="1" fill="#000" opacity="1" x="6" y="28"></rect><rect width="1" height="1" fill="#000" opacity="1" x="6" y="30"></rect><rect width="1" height="1" fill="#000" opacity="1" x="6" y="31"></rect><rect width="1" height="1" fill="#000" opacity="1" x="7" y="7"></rect><rect width="1" height="1" fill="#000" opacity="1" x="7" y="8"></rect><rect width="1" height="1" fill="#000" opacity="1" x="7" y="10"></rect><rect width="1" height="1" fill="#000" opacity="1" x="7" y="28"></rect><rect width="1" height="1" fill="#000" opacity="1" x="7" y="30"></rect><rect width="1" height="1" fill="#000" opacity="1" x="7" y="31"></rect><rect width="1" height="1" fill="#000" opacity="1" x="8" y="10"></rect><rect width="1" height="1" fill="#000" opacity="1" x="8" y="28"></rect><rect width="1" height="1" fill="#000" opacity="1" x="9" y="4"></rect><rect width="1" height="1" fill="#000" opacity="1" x="9" y="5"></rect><rect width="1" height="1" fill="#000" opacity="1" x="9" y="10"></rect><rect width="1" height="1" fill="#000" opacity="1" x="9" y="12"></rect><rect width="1" height="1" fill="#000" opacity="1" x="9" y="17"></rect><rect width="1" height="1" fill="#000" opacity="1" x="9" y="18"></rect><rect width="1" height="1" fill="#000" opacity="1" x="9" y="21"></rect><rect width="1" height="1" fill="#000" opacity="1" x="9" y="26"></rect><rect width="1" height="1" fill="#000" opacity="1" x="9" y="28"></rect><rect width="1" height="1" fill="#000" opacity="1" x="9" y="33"></rect><rect width="1" height="1" fill="#000" opacity="1" x="9" y="34"></rect><rect width="1" height="1" fill="#000" opacity="1" x="10" y="4"></rect><rect width="1" height="1" fill="#000" opacity="1" x="10" y="5"></rect><rect width="1" height="1" fill="#000" opacity="1" x="10" y="11"></rect><rect width="1" height="1" fill="#000" opacity="1" x="10" y="12"></rect><rect width="1" height="1" fill="#000" opacity="1" x="10" y="17"></rect><rect width="1" height="1" fill="#000" opacity="1" x="10" y="20"></rect><rect width="1" height="1" fill="#000" opacity="1" x="10" y="22"></rect><rect width="1" height="1" fill="#000" opacity="1" x="10" y="26"></rect><rect width="1" height="1" fill="#000" opacity="1" x="10" y="27"></rect><rect width="1" height="1" fill="#000" opacity="1" x="10" y="33"></rect><rect width="1" height="1" fill="#000" opacity="1" x="10" y="34"></rect><rect width="1" height="1" fill="#000" opacity="1" x="11" y="18"></rect><rect width="1" height="1" fill="#000" opacity="1" x="11" y="19"></rect><rect width="1" height="1" fill="#000" opacity="1" x="11" y="22"></rect><rect width="1" height="1" fill="#000" opacity="1" x="12" y="2"></rect><rect width="1" height="1" fill="#000" opacity="1" x="12" y="3"></rect><rect width="1" height="1" fill="#000" opacity="1" x="12" y="4"></rect><rect width="1" height="1" fill="#000" opacity="1" x="12" y="5"></rect><rect width="1" height="1" fill="#000" opacity="1" x="12" y="6"></rect><rect width="1" height="1" fill="#000" opacity="1" x="12" y="7"></rect><rect width="1" height="1" fill="#000" opacity="1" x="12" y="22"></rect><rect width="1" height="1" fill="#000" opacity="1" x="12" y="23"></rect><rect width="1" height="1" fill="#000" opacity="1" x="12" y="31"></rect><rect width="1" height="1" fill="#000" opacity="1" x="12" y="32"></rect><rect width="1" height="1" fill="#000" opacity="1" x="12" y="33"></rect><rect width="1" height="1" fill="#000" opacity="1" x="12" y="34"></rect><rect width="1" height="1" fill="#000" opacity="1" x="12" y="35"></rect><rect width="1" height="1" fill="#000" opacity="1" x="12" y="36"></rect><rect width="1" height="1" fill="#000" opacity="1" x="13" y="1"></rect><rect width="1" height="1" fill="#000" opacity="1" x="13" y="8"></rect><rect width="1" height="1" fill="#000" opacity="1" x="13" y="30"></rect><rect width="1" height="1" fill="#000" opacity="1" x="13" y="37"></rect><rect width="1" height="1" fill="#000" opacity="1" x="14" y="2"></rect><rect width="1" height="1" fill="#000" opacity="1" x="14" y="3"></rect><rect width="1" height="1" fill="#000" opacity="1" x="14" y="4"><animate attributeName="x" values="14;5;5;5;5;5" dur="2.000000s" repeatCount="indefinite"/><animate attributeName="y" values="4;24;24;24;24;24" dur="2.000000s" repeatCount="indefinite"/></rect><rect width="1" height="1" fill="#000" opacity="1" x="14" y="7"></rect><rect width="1" height="1" fill="#000" opacity="1" x="14" y="8"></rect><rect width="1" height="1" fill="#000" opacity="1" x="14" y="30"></rect><rect width="1" height="1" fill="#000" opacity="1" x="14" y="31"></rect><rect width="1" height="1" fill="#000" opacity="1" x="14" y="34"><animate attributeName="x" values="14;5;5;5;5;5" dur="2.000000s" repeatCount="indefinite"/><animate attributeName="y" values="34;25;25;25;25;25" dur="2.000000s" repeatCount="indefinite"/></rect><rect width="1" height="1" fill="#000" opacity="1" x="14" y="35"></rect><rect width="1" height="1" fill="#000" opacity="1" x="14" y="36"></rect><rect width="1" height="1" fill="#000" opacity="1" x="16" y="4"><animate attributeName="x" values="16;7;7;7;7;7" dur="2.000000s" repeatCount="indefinite"/><animate attributeName="y" values="4;11;11;11;11;11" dur="2.000000s" repeatCount="indefinite"/></rect><rect width="1" height="1" fill="#000" opacity="1" x="16" y="34"><animate attributeName="opacity" values="1;1;1;1;1;1;0;0" dur="2.000000s" repeatCount="indefinite"/><animate attributeName="x" values="16;7;7;7;7;16" dur="2.000000s" repeatCount="indefinite"/><animate attributeName="y" values="34;14;14;14;14;34" dur="2.000000s" repeatCount="indefinite"/></rect><rect width="1" height="1" fill="#000" opacity="1" x="17" y="1"><animate attributeName="opacity" values="1;1;1;1;1;1;0;0" dur="2.000000s" repeatCount="indefinite"/><animate attributeName="x" values="17;7;7;7;7;17" dur="2.000000s" repeatCount="indefinite"/><animate attributeName="y" values="1;24;24;24;24;1" dur="2.000000s" repeatCount="indefinite"/></rect><rect width="1" height="1" fill="#000" opacity="1" x="17" y="4"><animate attributeName="x" values="17;17;17;19;19;19" dur="2.000000s" repeatCount="indefinite"/><animate attributeName="y" values="4;4;4;7;7;7" dur="2.000000s" repeatCount="indefinite"/></rect><rect width="1" height="1" fill="#000" opacity="1" x="17" y="34"><animate attributeName="x" values="17;17;17;19;19;19" dur="2.000000s" repeatCount="indefinite"/><animate attributeName="y" values="34;34;34;9;9;9" dur="2.000000s" repeatCount="indefinite"/></rect><rect width="1" height="1" fill="#000" opacity="1" x="17" y="37"><animate attributeName="x" values="17;7;7;7;7;7" dur="2.000000s" repeatCount="indefinite"/><animate attributeName="y" values="37;27;27;27;27;27" dur="2.000000s" repeatCount="indefinite"/></rect><rect width="1" height="1" fill="#000" opacity="1" x="18" y="4"><animate attributeName="x" values="18;18;18;19;19;19" dur="2.000000s" repeatCount="indefinite"/><animate attributeName="y" values="4;4;4;31;31;31" dur="2.000000s" repeatCount="indefinite"/></rect><rect width="1" height="1" fill="#000" opacity="1" x="18" y="8"><animate attributeName="x" values="18;13;13;13;13;13" dur="2.000000s" repeatCount="indefinite"/><animate attributeName="y" values="8;5;5;5;5;5" dur="2.000000s" repeatCount="indefinite"/></rect><rect width="1" height="1" fill="#000" opacity="1" x="18" y="30"><animate attributeName="x" values="18;13;13;13;13;13" dur="2.000000s" repeatCount="indefinite"/><animate attributeName="y" values="30;33;33;33;33;33" dur="2.000000s" repeatCount="indefinite"/></rect><rect width="1" height="1" fill="#000" opacity="1" x="18" y="34"><animate attributeName="x" values="18;18;18;20;20;20" dur="2.000000s" repeatCount="indefinite"/><animate attributeName="y" values="34;34;34;1;1;1" dur="2.000000s" repeatCount="indefinite"/></rect><rect width="1" height="1" fill="#000" opacity="1" x="19" y="4"><animate attributeName="x" values="19;19;19;20;20;20" dur="2.000000s" repeatCount="indefinite"/><animate attributeName="y" values="4;4;4;37;37;37" dur="2.000000s" repeatCount="indefinite"/></rect><rect width="1" height="1" fill="#000" opacity="1" x="19" y="8"></rect><rect width="1" height="1" fill="#000" opacity="1" x="19" y="30"></rect><rect width="1" height="1" fill="#000" opacity="1" x="19" y="34"><animate attributeName="opacity" values="1;1;1;1;0;0;0;0" dur="2.000000s" repeatCount="indefinite"/></rect><rect width="1" height="1" fill="#000" opacity="1" x="20" y="0"><animate attributeName="x" values="20;15;15;15;15;15" dur="2.000000s" repeatCount="indefinite"/><animate attributeName="y" values="0;3;3;3;3;3" dur="2.000000s" repeatCount="indefinite"/></rect><rect width="1" height="1" fill="#000" opacity="1" x="20" y="4"><animate attributeName="opacity" values="1;1;1;1;0;0;0;0" dur="2.000000s" repeatCount="indefinite"/></rect><rect width="1" height="1" fill="#000" opacity="1" x="20" y="8"><animate attributeName="x" values="20;15;15;15;15;15" dur="2.000000s" repeatCount="indefinite"/><animate attributeName="y" values="8;35;35;35;35;35" dur="2.000000s" repeatCount="indefinite"/></rect><rect width="1" height="1" fill="#000" opacity="1" x="20" y="30"><animate attributeName="x" values="20;16;16;16;16;16" dur="2.000000s" repeatCount="indefinite"/><animate attributeName="y" values="30;3;3;3;3;3" dur="2.000000s" repeatCount="indefinite"/></rect><rect width="1" height="1" fill="#000" opacity="1" x="20" y="34"><animate attributeName="opacity" values="1;1;1;1;0;0;0;0" dur="2.000000s" repeatCount="indefinite"/></rect><rect width="1" height="1" fill="#000" opacity="1" x="20" y="38"><animate attributeName="opacity" values="1;1;1;1;1;1;0;0" dur="2.000000s" repeatCount="indefinite"/><animate attributeName="x" values="20;16;16;16;16;20" dur="2.000000s" repeatCount="indefinite"/><animate attributeName="y" values="38;5;5;5;5;38" dur="2.000000s" repeatCount="indefinite"/></rect><rect width="1" height="1" fill="#000" opacity="1" x="21" y="4"><animate attributeName="opacity" values="1;1;1;1;0;0;0;0" dur="2.000000s" repeatCount="indefinite"/></rect><rect width="1" height="1" fill="#000" opacity="1" x="21" y="34"><animate attributeName="opacity" values="1;1;1;1;0;0;0;0" dur="2.000000s" repeatCount="indefinite"/></rect><rect width="1" height="1" fill="#000" opacity="1" x="22" y="1"><animate attributeName="opacity" values="1;1;1;1;1;1;0;0" dur="2.000000s" repeatCount="indefinite"/><animate attributeName="x" values="22;16;16;16;16;22" dur="2.000000s" repeatCount="indefinite"/><animate attributeName="y" values="1;33;33;33;33;1" dur="2.000000s" repeatCount="indefinite"/></rect><rect width="1" height="1" fill="#000" opacity="1" x="22" y="4"><animate attributeName="opacity" values="1;1;1;1;0;0;0;0" dur="2.000000s" repeatCount="indefinite"/></rect><rect width="1" height="1" fill="#000" opacity="1" x="22" y="34"><animate attributeName="opacity" values="1;1;1;1;0;0;0;0" dur="2.000000s" repeatCount="indefinite"/></rect><rect width="1" height="1" fill="#000" opacity="1" x="22" y="37"><animate attributeName="x" values="22;16;16;16;16;16" dur="2.000000s" repeatCount="indefinite"/><animate attributeName="y" values="37;35;35;35;35;35" dur="2.000000s" repeatCount="indefinite"/></rect><rect width="1" height="1" fill="#000" opacity="1" x="23" y="3"></rect><rect width="1" height="1" fill="#000" opacity="1" x="23" y="35"></rect><rect width="1" height="1" fill="#000" opacity="1" x="24" y="1"></rect><rect width="1" height="1" fill="#000" opacity="1" x="24" y="3"></rect><rect width="1" height="1" fill="#000" opacity="1" x="24" y="5"></rect><rect width="1" height="1" fill="#000" opacity="1" x="24" y="33"></rect><rect width="1" height="1" fill="#000" opacity="1" x="24" y="35"></rect><rect width="1" height="1" fill="#000" opacity="1" x="24" y="37"></rect><rect width="1" height="1" fill="#000" opacity="1" x="25" y="1"></rect><rect width="1" height="1" fill="#000" opacity="1" x="25" y="2"></rect><rect width="1" height="1" fill="#000" opacity="1" x="25" y="4"></rect><rect width="1" height="1" fill="#000" opacity="1" x="25" y="6"></rect><rect width="1" height="1" fill="#000" opacity="1" x="25" y="32"></rect><rect width="1" height="1" fill="#000" opacity="1" x="25" y="34"></rect><rect width="1" height="1" fill="#000" opacity="1" x="25" y="36"></rect><rect width="1" height="1" fill="#000" opacity="1" x="25" y="37"></rect><rect width="1" height="1" fill="#000" opacity="1" x="26" y="4"></rect><rect width="1" height="1" fill="#000" opacity="1" x="26" y="6"></rect><rect width="1" height="1" fill="#000" opacity="1" x="26" y="32"></rect><rect width="1" height="1" fill="#000" opacity="1" x="26" y="34"></rect><rect width="1" height="1" fill="#000" opacity="1" x="27" y="4"></rect><rect width="1" height="1" fill="#000" opacity="1" x="27" y="5"></rect><rect width="1" height="1" fill="#000" opacity="1" x="27" y="33"></rect><rect width="1" height="1" fill="#000" opacity="1" x="27" y="34"></rect><rect width="1" height="1" fill="#000" opacity="1" x="1" y="18"></rect><rect width="1" height="1" fill="#000" opacity="1" x="1" y="19"></rect><rect width="1" height="1" fill="#000" opacity="1" x="1" y="20"></rect><rect width="1" height="1" fill="#000" opacity="1" x="5" y="15"></rect><rect width="1" height="1" fill="#000" opacity="1" x="5" y="16"><animate attributeName="x" values="5;5;5;2;2;2" dur="2.000000s" repeatCount="indefinite"/><animate attributeName="y" values="16;16;16;18;18;18" dur="2.000000s" repeatCount="indefinite"/></rect><rect width="1" height="1" fill="#000" opacity="1" x="5" y="17"><animate attributeName="x" values="5;5;5;2;2;2" dur="2.000000s" repeatCount="indefinite"/><animate attributeName="y" values="17;17;17;20;20;20" dur="2.000000s" repeatCount="indefinite"/></rect><rect width="1" height="1" fill="#000" opacity="1" x="5" y="18"><animate attributeName="x" values="5;5;5;3;3;3" dur="2.000000s" repeatCount="indefinite"/><animate attributeName="y" values="18;18;18;17;17;17" dur="2.000000s" repeatCount="indefinite"/></rect><rect width="1" height="1" fill="#000" opacity="1" x="5" y="19"><animate attributeName="x" values="5;5;5;3;3;3" dur="2.000000s" repeatCount="indefinite"/><animate attributeName="y" values="19;19;19;21;21;21" dur="2.000000s" repeatCount="indefinite"/></rect><rect width="1" height="1" fill="#000" opacity="1" x="5" y="20"><animate attributeName="x" values="5;5;5;4;4;4" dur="2.000000s" repeatCount="indefinite"/><animate attributeName="y" values="20;20;20;14;14;14" dur="2.000000s" repeatCount="indefinite"/></rect><rect width="1" height="1" fill="#000" opacity="1" x="5" y="21"><animate attributeName="x" values="5;5;5;4;4;4" dur="2.000000s" repeatCount="indefinite"/><animate attributeName="y" values="21;21;21;15;15;15" dur="2.000000s" repeatCount="indefinite"/></rect><rect width="1" height="1" fill="#000" opacity="1" x="5" y="22"><animate attributeName="x" values="5;5;5;4;4;4" dur="2.000000s" repeatCount="indefinite"/><animate attributeName="y" values="22;22;22;23;23;23" dur="2.000000s" repeatCount="indefinite"/></rect><rect width="1" height="1" fill="#000" opacity="1" x="5" y="23"></rect><rect width="1" height="1" fill="#000" opacity="1" x="6" y="13"><animate attributeName="x" values="6;6;6;4;4;4" dur="2.000000s" repeatCount="indefinite"/><animate attributeName="y" values="13;13;13;24;24;24" dur="2.000000s" repeatCount="indefinite"/></rect><rect width="1" height="1" fill="#000" opacity="1" x="6" y="25"><animate attributeName="x" values="6;6;6;14;14;14" dur="2.000000s" repeatCount="indefinite"/><animate attributeName="y" values="25;25;25;4;4;4" dur="2.000000s" repeatCount="indefinite"/></rect><rect width="1" height="1" fill="#000" opacity="1" x="7" y="15"><animate attributeName="opacity" values="1;1;1;1;1;1;0;0" dur="2.000000s" repeatCount="indefinite"/></rect><rect width="1" height="1" fill="#000" opacity="1" x="7" y="16"><animate attributeName="x" values="7;7;7;14;14;14" dur="2.000000s" repeatCount="indefinite"/><animate attributeName="y" values="16;16;16;34;34;34" dur="2.000000s" repeatCount="indefinite"/></rect><rect width="1" height="1" fill="#000" opacity="1" x="7" y="17"><animate attributeName="x" values="7;7;7;16;16;16" dur="2.000000s" repeatCount="indefinite"/><animate attributeName="y" values="17;17;17;2;2;2" dur="2.000000s" repeatCount="indefinite"/></rect><rect width="1" height="1" fill="#000" opacity="1" x="7" y="18"><animate attributeName="x" values="7;7;7;16;16;16" dur="2.000000s" repeatCount="indefinite"/><animate attributeName="y" values="18;18;18;36;36;36" dur="2.000000s" repeatCount="indefinite"/></rect><rect width="1" height="1" fill="#000" opacity="1" x="7" y="19"><animate attributeName="x" values="7;7;7;17;17;17" dur="2.000000s" repeatCount="indefinite"/><animate attributeName="y" values="19;19;19;2;2;2" dur="2.000000s" repeatCount="indefinite"/></rect><rect width="1" height="1" fill="#000" opacity="1" x="7" y="20"><animate attributeName="x" values="7;7;7;17;17;17" dur="2.000000s" repeatCount="indefinite"/><animate attributeName="y" values="20;20;20;36;36;36" dur="2.000000s" repeatCount="indefinite"/></rect><rect width="1" height="1" fill="#000" opacity="1" x="7" y="21"><animate attributeName="x" values="7;7;7;18;18;18" dur="2.000000s" repeatCount="indefinite"/><animate attributeName="y" values="21;21;21;3;3;3" dur="2.000000s" repeatCount="indefinite"/></rect><rect width="1" height="1" fill="#000" opacity="1" x="7" y="22"><animate attributeName="x" values="7;7;7;18;18;18" dur="2.000000s" repeatCount="indefinite"/><animate attributeName="y" values="22;22;22;35;35;35" dur="2.000000s" repeatCount="indefinite"/></rect><rect width="1" height="1" fill="#000" opacity="1" x="7" y="23"><animate attributeName="opacity" values="1;1;1;1;1;1;0;0" dur="2.000000s" repeatCount="indefinite"/></rect><rect width="1" height="1" fill="#000" opacity="1" x="15" y="4"><animate attributeName="x" values="15;15;15;19;19;19" dur="2.000000s" repeatCount="indefinite"/><animate attributeName="y" values="4;4;4;1;1;1" dur="2.000000s" repeatCount="indefinite"/></rect><rect width="1" height="1" fill="#000" opacity="1" x="15" y="34"><animate attributeName="x" values="15;15;15;19;19;19" dur="2.000000s" repeatCount="indefinite"/><animate attributeName="y" values="34;34;34;3;3;3" dur="2.000000s" repeatCount="indefinite"/></rect><rect width="1" height="1" fill="#000" opacity="1" x="17" y="3"></rect><rect width="1" height="1" fill="#000" opacity="1" x="17" y="5"><animate attributeName="opacity" values="1;1;1;1;1;1;0;0" dur="2.000000s" repeatCount="indefinite"/></rect><rect width="1" height="1" fill="#000" opacity="1" x="17" y="33"><animate attributeName="opacity" values="1;1;1;1;1;1;0;0" dur="2.000000s" repeatCount="indefinite"/></rect><rect width="1" height="1" fill="#000" opacity="1" x="17" y="35"></rect><rect width="1" height="1" fill="#000" opacity="1" x="18" y="3"><animate attributeName="x" values="18;18;18;19;19;19" dur="2.000000s" repeatCount="indefinite"/><animate attributeName="y" values="3;3;3;29;29;29" dur="2.000000s" repeatCount="indefinite"/></rect><rect width="1" height="1" fill="#000" opacity="1" x="18" y="5"><animate attributeName="x" values="18;18;18;19;19;19" dur="2.000000s" repeatCount="indefinite"/><animate attributeName="y" values="5;5;5;35;35;35" dur="2.000000s" repeatCount="indefinite"/></rect><rect width="1" height="1" fill="#000" opacity="1" x="18" y="33"><animate attributeName="x" values="18;18;18;19;19;19" dur="2.000000s" repeatCount="indefinite"/><animate attributeName="y" values="33;33;33;37;37;37" dur="2.000000s" repeatCount="indefinite"/></rect><rect width="1" height="1" fill="#000" opacity="1" x="18" y="35"><animate attributeName="x" values="18;18;18;20;20;20" dur="2.000000s" repeatCount="indefinite"/><animate attributeName="y" values="35;35;35;3;3;3" dur="2.000000s" repeatCount="indefinite"/></rect><rect width="1" height="1" fill="#000" opacity="1" x="19" y="3"><animate attributeName="x" values="19;19;19;20;20;20" dur="2.000000s" repeatCount="indefinite"/><animate attributeName="y" values="3;3;3;35;35;35" dur="2.000000s" repeatCount="indefinite"/></rect><rect width="1" height="1" fill="#000" opacity="1" x="19" y="5"><animate attributeName="x" values="19;19;19;21;21;21" dur="2.000000s" repeatCount="indefinite"/><animate attributeName="y" values="5;5;5;1;1;1" dur="2.000000s" repeatCount="indefinite"/></rect><rect width="1" height="1" fill="#000" opacity="1" x="19" y="7"><animate attributeName="x" values="19;19;19;21;21;21" dur="2.000000s" repeatCount="indefinite"/><animate attributeName="y" values="7;7;7;3;3;3" dur="2.000000s" repeatCount="indefinite"/></rect><rect width="1" height="1" fill="#000" opacity="1" x="19" y="9"><animate attributeName="x" values="19;19;19;21;21;21" dur="2.000000s" repeatCount="indefinite"/><animate attributeName="y" values="9;9;9;35;35;35" dur="2.000000s" repeatCount="indefinite"/></rect><rect width="1" height="1" fill="#000" opacity="1" x="19" y="29"><animate attributeName="x" values="19;19;19;21;21;21" dur="2.000000s" repeatCount="indefinite"/><animate attributeName="y" values="29;29;29;37;37;37" dur="2.000000s" repeatCount="indefinite"/></rect><rect width="1" height="1" fill="#000" opacity="1" x="19" y="31"><animate attributeName="x" values="19;19;19;22;22;22" dur="2.000000s" repeatCount="indefinite"/><animate attributeName="y" values="31;31;31;3;3;3" dur="2.000000s" repeatCount="indefinite"/></rect><rect width="1" height="1" fill="#000" opacity="1" x="19" y="33"><animate attributeName="x" values="19;19;19;22;22;22" dur="2.000000s" repeatCount="indefinite"/><animate attributeName="y" values="33;33;33;35;35;35" dur="2.000000s" repeatCount="indefinite"/></rect><rect width="1" height="1" fill="#000" opacity="1" x="19" y="35"><animate attributeName="opacity" values="1;1;1;1;0;0;0;0" dur="2.000000s" repeatCount="indefinite"/></rect><rect width="1" height="1" fill="#000" opacity="1" x="20" y="3"><animate attributeName="opacity" values="1;1;1;1;0;0;0;0" dur="2.000000s" repeatCount="indefinite"/></rect><rect width="1" height="1" fill="#000" opacity="1" x="20" y="5"><animate attributeName="opacity" values="1;1;1;1;0;0;0;0" dur="2.000000s" repeatCount="indefinite"/></rect><rect width="1" height="1" fill="#000" opacity="1" x="20" y="33"><animate attributeName="opacity" values="1;1;1;1;0;0;0;0" dur="2.000000s" repeatCount="indefinite"/></rect><rect width="1" height="1" fill="#000" opacity="1" x="20" y="35"><animate attributeName="opacity" values="1;1;1;1;0;0;0;0" dur="2.000000s" repeatCount="indefinite"/></rect><rect width="1" height="1" fill="#000" opacity="1" x="21" y="3"><animate attributeName="opacity" values="1;1;1;1;0;0;0;0" dur="2.000000s" repeatCount="indefinite"/></rect><rect width="1" height="1" fill="#000" opacity="1" x="21" y="5"><animate attributeName="opacity" values="1;1;1;1;0;0;0;0" dur="2.000000s" repeatCount="indefinite"/></rect><rect width="1" height="1" fill="#000" opacity="1" x="21" y="33"><animate attributeName="opacity" values="1;1;1;1;0;0;0;0" dur="2.000000s" repeatCount="indefinite"/></rect><rect width="1" height="1" fill="#000" opacity="1" x="21" y="35"><animate attributeName="opacity" values="1;1;1;1;0;0;0;0" dur="2.000000s" repeatCount="indefinite"/></rect><rect width="1" height="1" fill="#000" opacity="1" x="22" y="3"><animate attributeName="opacity" values="1;1;1;1;0;0;0;0" dur="2.000000s" repeatCount="indefinite"/></rect><rect width="1" height="1" fill="#000" opacity="1" x="22" y="35"><animate attributeName="opacity" values="1;1;1;1;0;0;0;0" dur="2.000000s" repeatCount="indefinite"/></rect><rect width="1" height="1" fill="#000" opacity="1" x="27" y="18"><animate attributeName="opacity" values="1;1;1;1;0;0;0;0" dur="2.000000s" repeatCount="indefinite"/></rect><rect width="1" height="1" fill="#000" opacity="1" x="18" y="2"></rect><rect width="1" height="1" fill="#000" opacity="1" x="18" y="8"><animate attributeName="opacity" values="1;1;1;1;1;1;0;0" dur="2.000000s" repeatCount="indefinite"/></rect><rect width="1" height="1" fill="#000" opacity="1" x="18" y="30"><animate attributeName="opacity" values="1;1;1;1;1;1;0;0" dur="2.000000s" repeatCount="indefinite"/></rect><rect width="1" height="1" fill="#000" opacity="1" x="18" y="36"></rect><rect width="1" height="1" fill="#000" opacity="1" x="19" y="2"></rect><rect width="1" height="1" fill="#000" opacity="1" x="19" y="36"></rect><rect width="1" height="1" fill="#000" opacity="1" x="20" y="2"></rect><rect width="1" height="1" fill="#000" opacity="1" x="20" y="8"><animate attributeName="opacity" values="1;1;1;1;1;1;0;0" dur="2.000000s" repeatCount="indefinite"/></rect><rect width="1" height="1" fill="#000" opacity="1" x="20" y="30"><animate attributeName="opacity" values="1;1;1;1;1;1;0;0" dur="2.000000s" repeatCount="indefinite"/></rect><rect width="1" height="1" fill="#000" opacity="1" x="20" y="36"></rect><rect width="1" height="1" fill="#000" opacity="1" x="21" y="2"></rect><rect width="1" height="1" fill="#000" opacity="1" x="21" y="36"></rect><rect width="1" height="1" fill="#000" opacity="1" x="22" y="2"></rect><rect width="1" height="1" fill="#000" opacity="1" x="22" y="5"><animate attributeName="opacity" values="1;1;1;1;1;1;0;0" dur="2.000000s" repeatCount="indefinite"/></rect><rect width="1" height="1" fill="#000" opacity="1" x="22" y="33"><animate attributeName="opacity" values="1;1;1;1;1;1;0;0" dur="2.000000s" repeatCount="indefinite"/></rect><rect width="1" height="1" fill="#000" opacity="1" x="22" y="36"></rect></svg>